<?xml version="1.0" encoding="utf-8"?>
<!-- Generator: Adobe Illustrator 17.0.0, SVG Export Plug-In . SVG Version: 6.00 Build 0)  -->
<!DOCTYPE svg PUBLIC "-//W3C//DTD SVG 1.1//EN" "http://www.w3.org/Graphics/SVG/1.1/DTD/svg11.dtd">
<svg version="1.1" id="Layer_1" xmlns="http://www.w3.org/2000/svg" xmlns:xlink="http://www.w3.org/1999/xlink" x="0px" y="0px"
	 width="1224px" height="494.346px" viewBox="0 0 1224 494.346" enable-background="new 0 0 1224 494.346" xml:space="preserve">
<polygon fill="#E31B23" points="127.14,101.259 60.08,171.571 60.08,101.259 6.121,101.259 6.121,274.598 60.08,274.598 
	60.08,229.776 79.831,210.217 128.798,274.598 193.627,274.598 117.392,175.789 191.112,101.259 "/>
<polygon fill="#E31B23" points="210.992,100.656 259.203,100.656 259.203,165.757 321.071,165.757 321.071,100.656 369.291,100.656 
	369.291,274.597 321.071,274.597 321.071,208.502 259.203,208.502 259.203,274.597 210.992,274.597 "/>
<polygon fill="#E31B23" points="393.017,100.656 532.904,100.656 532.904,141.652 440.727,141.652 440.727,167.989 524.222,167.989 
	524.222,206.006 440.727,206.006 440.727,233.592 534.143,233.592 534.143,274.597 393.017,274.597 "/>
<path fill="#E31B23" d="M622.068,99.411h46.462l74.066,175.18h-51.7l-12.663-31.066h-67.088l-12.435,31.066H548.02L622.068,99.411z
	 M664.312,206.019l-19.377-49.45l-19.642,49.45H664.312z"/>
<polygon fill="#E31B23" points="754.749,100.656 798.077,100.656 867.059,192.596 867.059,100.656 913.047,100.656 913.047,274.597 
	872.316,274.597 800.728,179.167 800.728,274.597 754.749,274.597 "/>
<polygon fill="#E31B23" points="141.966,305.549 99.878,372.892 57.79,305.549 6.121,305.549 6.121,479.49 54.011,479.49 
	54.011,380.107 98.871,447.687 99.878,447.687 144.997,379.606 144.997,479.49 193.627,479.49 193.627,305.549 "/>
<path fill="#E31B23" d="M210.992,403.214v-97.661h47.847v96.65c0,25.108,12.364,37.033,31.325,37.033
	c18.934,0,31.307-11.424,31.307-35.776v-97.907h47.82v96.413c0,56.155-31.307,80.762-79.626,80.762S210.992,457.62,210.992,403.214"
	/>
<path fill="#E31B23" d="M393.021,305.553h82.238c26.584,0,44.986,6.96,56.656,18.876c10.185,9.939,15.424,23.368,15.424,40.504
	v0.492c0,26.611-14.194,44.239-35.794,53.44l41.488,60.619h-55.654l-35.047-52.675h-0.483h-20.616v52.675h-48.211V305.553z
	 M473.027,389.039c16.398,0,25.855-7.953,25.855-20.616v-0.492c0-13.674-9.948-20.625-26.101-20.625h-31.549v41.734H473.027z"/>
<path fill="#E31B23" d="M571.882,305.549h83.613c49.359,0,81.154,22.612,81.154,61.129v0.492c0,41.005-35.439,62.623-83.914,62.623
	h-26.784v49.696h-54.069V305.549z M651.605,392.032c19.25,0,30.956-8.946,30.956-22.611v-0.501
	c0-14.913-11.707-22.867-31.221-22.867h-25.39v45.979H651.605z"/>
<polygon fill="#E31B23" points="864.828,305.549 864.828,370.66 802.97,370.66 802.97,305.549 754.75,305.549 754.75,479.49 
	802.97,479.49 802.97,413.405 864.828,413.405 864.828,479.49 913.048,479.49 913.048,305.549 "/>
<polygon fill="#E31B23" points="1057.418,305.566 1021.397,368.909 985.612,305.566 930.696,305.566 996.781,414.396 
	996.781,479.507 1045.238,479.507 1045.238,413.649 1111.351,305.566 "/>
<path fill="#E31B23" d="M1060.383,156.853l11.543-19.077l43.474,11.133l-29.125,12.308l3.589,28.843L1060.383,156.853z M1106.007,3
	L955.315,251.945l63.607-26.62l21.455-35.439l96.021,108.42l-12.053-117.093l92.15-38.554l-127.233-32.569l23.86-40.385L1106.007,3z
	"/>
<polygon fill="#E31B23" points="934.655,70.497 1021.256,92.681 994.071,137.585 "/>
</svg>
